<svg xmlns="http://www.w3.org/2000/svg" width="800" height="800" viewBox="0 -7 48 48"><path fill="#CE1312" fill-rule="evenodd" d="M19.04 23.27V9.69l12.97 6.81-12.97 6.77ZM47.52 7.33s-.47-3.33-1.9-4.8C43.78.62 41.73.6 40.8.5 34.1 0 24.01 0 24.01 0H24S13.9 0 7.19.49C6.27.6 4.22.6 2.4 2.54.95 4 .48 7.34.48 7.34S0 11.23 0 15.15v3.67c0 3.9.48 7.82.48 7.82s.47 3.33 1.9 4.8c1.83 1.92 4.23 1.86 5.3 2.06C11.52 33.9 24 34 24 34s10.09-.02 16.8-.5c.94-.12 2.99-.13 4.81-2.05 1.44-1.47 1.91-4.8 1.91-4.8s.48-3.91.48-7.82v-3.67c0-3.91-.48-7.83-.48-7.83Z"/></svg>