<svg xmlns="http://www.w3.org/2000/svg" width="800" height="800" fill="none" viewBox="0 0 32 32"><circle cx="16" cy="16" r="14" fill="url(#a)"/><path fill="#fff" d="M22.99 10.2c.12-.8-.64-1.43-1.36-1.12L7.36 15.34c-.5.23-.47 1 .06 1.18l2.94.93a1.9 1.9 0 0 0 1.66-.25l6.64-4.58c.2-.14.41.15.24.32l-4.77 4.92c-.47.48-.37 1.3.18 1.64l5.35 3.35c.6.38 1.37 0 1.48-.72L23 10.2Z"/><defs><linearGradient id="a" x1="16" x2="16" y1="2" y2="30" gradientUnits="userSpaceOnUse"><stop stop-color="#37BBFE"/><stop offset="1" stop-color="#007DBB"/></linearGradient></defs></svg>